:SAMPLES-PER-SECOND 30
:FULLY-SPECIFIED
:DEGREES
1489
root  6.23725 38.2959 14.7475 -179.202 63.0228 -172.703
RightUpLeg  -12.454 -12.6887 -0.336074
RightLeg  25.1884 3.94351 1.82698
RightFoot  -4.68859 0.0166236 -0.838962
RightToes  6.35927e-011 1.30204e-014 -6.03759e-014
Spine  10.001 -2.2943 12.3189
Spine1  9.18196 -0.0296808 -1.29453
HEad  70.3388 23.8884 -169.992
LeftShoulder1  -0.183042 4.00406 -30.4637
LeftArm  -5.23137 6.14882 -43.8033
LeftForeArm  20.4689 -12.9854 -6.40671
LeftHand  0.0233393 7.36004 3.45052
RightShoulder  -0.405614 -4.69421 27.0948
RightArm  6.57323 -4.20985 44.7827
RightForeArm  4.13703 6.37843 4.7373
RightHand  -0.214469 1.52099 -3.73516
LeftUpLeg  -4.48323 -4.87207 8.66822
LeftLeg  58.9341 0.34847 1.1794
LeftFoot  5.49203 0.215368 -1.71453
LeftToes  -7.16024e-010 4.79583e-011 -5.98286e-011
1490
root  7.36325 38.5342 14.5778 179.425 62.8449 -174.053
RightUpLeg  -9.69777 -13.0286 -1.01257
RightLeg  24.1118 4.05274 2.04708
RightFoot  -5.9539 0.0050154 -0.968893
RightToes  6.35927e-011 1.30204e-014 -6.03759e-014
Spine  9.89294 -2.05615 12.6599
Spine1  9.35561 0.570923 -2.48902
HEad  73.5883 30.0443 -161.811
LeftShoulder1  -0.170941 3.9715 -30.4216
LeftArm  -4.23095 8.25855 -43.2719
LeftForeArm  19.726 -13.6302 -6.40997
LeftHand  0.0204802 7.30097 3.37999
RightShoulder  -0.462725 -4.86099 27.2113
RightArm  7.79541 -3.59725 44.8012
RightForeArm  5.35774 7.53155 5.18176
RightHand  -0.215138 1.37676 -3.83032
LeftUpLeg  -7.87899 -4.30434 7.37506
LeftLeg  60.2283 -1.04196 -1.38931
LeftFoot  2.84554 0.355374 -2.98112
LeftToes  -7.16024e-010 4.79583e-011 -5.98286e-011
1491
root  8.46708 38.7451 14.3643 178.517 62.8143 -175.235
RightUpLeg  -7.30039 -12.9163 -1.68606
RightLeg  22.9237 3.99641 2.35952
RightFoot  -6.72191 0.00364269 -1.2157
RightToes  6.35927e-011 1.30204e-014 -6.03759e-014
Spine  9.46074 -1.68593 13.2067
Spine1  9.31167 1.26175 -3.82734
HEad  77.9729 39.2212 -152.358
LeftShoulder1  -0.17916 3.99343 -30.4556
LeftArm  -3.22789 10.2473 -42.6323
LeftForeArm  18.5196 -14.2264 -6.39601
LeftHand  0.0180692 7.18788 3.39666
RightShoulder  -0.494815 -4.96186 27.0951
RightArm  8.7099 -3.26945 44.8884
RightForeArm  5.50884 9.14365 5.45469
RightHand  -0.19976 1.243 -3.62664
LeftUpLeg  -11.0964 -2.86091 5.98491
LeftLeg  59.0303 -1.49712 -2.16173
LeftFoot  1.39564 0.314575 -2.88019
LeftToes  -7.16024e-010 4.79583e-011 -5.98286e-011
1492
root  9.55456 38.9366 14.1406 177.673 62.7348 -176.294
RightUpLeg  -4.72944 -12.6696 -2.3119
RightLeg  21.471 3.75008 2.57236
RightFoot  -7.9198 -0.0244614 -0.955139
RightToes  6.35927e-011 1.30204e-014 -6.03759e-014
Spine  9.09366 -1.2207 13.2811
Spine1  9.12422 1.79527 -4.68427
HEad  76.389 48.3791 -153.136
LeftShoulder1  -0.228499 4.12316 -30.7577
LeftArm  -3.00723 11.9049 -42.0638
LeftForeArm  17.8143 -14.5313 -6.3027
LeftHand  0.0103619 7.05064 3.12095
RightShoulder  -0.466916 -4.8936 26.7218
RightArm  9.84467 -3.07645 44.8016
RightForeArm  3.87387 11.2451 5.55529
RightHand  -0.191844 1.39844 -3.42174
LeftUpLeg  -13.6051 -0.527618 4.61974
LeftLeg  55.4287 -1.24104 -1.45824
LeftFoot  -0.38901 0.193025 -1.995
LeftToes  -7.16024e-010 4.79583e-011 -5.98286e-011
1493
root  10.6152 39.0959 13.9182 176.76 62.3827 -177.296
RightUpLeg  -1.92564 -12.3753 -2.8695
RightLeg  19.7378 3.16384 2.58649
RightFoot  -9.07042 -0.051952 -0.497829
RightToes  6.35927e-011 1.30204e-014 -6.03759e-014
Spine  8.82074 -0.801133 12.7352
Spine1  8.95661 2.05143 -5.01309
HEad  66.2054 56.0653 -166.244
LeftShoulder1  -0.273073 4.23854 -31.0385
LeftArm  -3.59684 13.3013 -41.7804
LeftForeArm  17.6697 -14.4954 -6.17947
LeftHand  0.00545011 7.0052 2.86375
RightShoulder  -0.434912 -4.80901 26.4103
RightArm  11.3448 -2.63292 44.4892
RightForeArm  1.58713 13.5279 5.4998
RightHand  -0.214504 1.84805 -3.60668
LeftUpLeg  -15.2581 2.13597 3.22271
LeftLeg  49.5284 -0.690308 -0.44566
LeftFoot  -3.11047 0.160161 -1.98019
LeftToes  -7.16024e-010 4.79583e-011 -5.98286e-011
1494
root  11.6364 39.2085 13.6806 176.184 61.702 -177.951
RightUpLeg  0.764158 -11.9863 -3.17698
RightLeg  17.977 2.17142 2.43932
RightFoot  -9.60513 -0.0567812 -0.559953
RightToes  6.35927e-011 1.30204e-014 -6.03759e-014
Spine  8.46051 -0.519675 12.0364
Spine1  8.92571 2.09489 -5.16739
HEad  45.2641 62.0512 168.87
LeftShoulder1  -0.284649 4.26837 -31.0988
LeftArm  -4.46215 14.2702 -41.7229
LeftForeArm  17.7674 -13.9823 -6.18959
LeftHand  0.00899364 7.06106 3.01888
RightShoulder  -0.439706 -4.82654 26.3374
RightArm  12.7493 -1.82628 44.1061
RightForeArm  0.0779759 15.6538 5.3077
RightHand  -0.255244 2.28364 -4.05555
LeftUpLeg  -16.1988 5.02245 1.79103
LeftLeg  41.4969 0.0529165 0.417563
LeftFoot  -4.73801 0.149302 -2.09027
LeftToes  -7.16024e-010 4.79583e-011 -5.98286e-011
1495
root  12.6168 39.265 13.412 176.104 60.7446 -178.05
RightUpLeg  3.35267 -11.6507 -3.19977
RightLeg  16.3289 0.992603 2.30611
RightFoot  -10.2025 -0.0609963 -0.789388
RightToes  6.35927e-011 1.30204e-014 -6.03759e-014
Spine  8.01143 -0.365796 11.4139
Spine1  9.08644 2.00806 -5.23682
HEad  18.8173 64.6712 136.744
LeftShoulder1  -0.288986 4.27953 -31.1214
LeftArm  -5.18216 14.5615 -41.6435
LeftForeArm  18.1343 -12.9693 -6.39803
LeftHand  0.0166151 7.16741 3.33992
RightShoulder  -0.444456 -4.84218 26.3105
RightArm  13.4776 -0.908607 43.8158
RightForeArm  -0.471393 17.4071 5.06177
RightHand  -0.282794 2.52268 -4.35458
LeftUpLeg  -16.34 9.02296 0.254588
LeftLeg  31.6523 0.369657 0.685248
LeftFoot  -4.5934 0.136312 -1.84467
LeftToes  -7.16024e-010 4.79583e-011 -5.98286e-011
1496
root  13.5687 39.2714 13.1097 176.311 59.5999 -177.724
RightUpLeg  6.14092 -11.3808 -3.03217
RightLeg  14.5207 -0.270866 2.29275
RightFoot  -11.253 -0.0754883 -0.479396
RightToes  6.35927e-011 1.30204e-014 -6.03759e-014
Spine  7.54918 -0.254432 10.7324
Spine1  9.38745 1.86441 -5.1225
HEad  -4.28419 62.1298 106.551
LeftShoulder1  -0.304884 4.31955 -31.2419
LeftArm  -5.62056 14.3924 -41.4686
LeftForeArm  18.8485 -11.8232 -6.68068
LeftHand  0.0221875 7.38127 3.36961
RightShoulder  -0.424047 -4.78491 26.1737
RightArm  13.4929 -0.140778 43.6169
RightForeArm  -0.70297 18.6103 4.89198
RightHand  -0.290956 2.67858 -4.40085
LeftUpLeg  -15.5733 14.1183 -1.35969
LeftLeg  20.4737 -0.129178 0.0708777
LeftFoot  -3.94195 0.201043 -2.73033
LeftToes  -7.16024e-010 4.79583e-011 -5.98286e-011
